<svg xmlns="http://www.w3.org/2000/svg" viewBox="0 0 390 92" role="img" aria-labelledby="title desc">
  <title id="title">PrimeLink Hawema Enterprise</title>
  <desc id="desc">PrimeLink Hawema Enterprise brand mark</desc>
  <g fill="none" fill-rule="evenodd">
    <g transform="translate(2 4)">
      <path d="M12 47C12 22 31 5 59 5c11 0 21 2 30 7-7-2-13-3-20-3-27 0-45 16-45 39 0 23 19 36 43 36 13 0 25-3 35-10-10 11-26 17-44 17-28 0-46-17-46-44Z" fill="#082a5b"/>
      <path d="M36 24h31c16 0 24 7 21 19-2 11-11 17-27 17H49l-5 18H28l15-54Zm17 13-3 11h12c6 0 9-2 10-6 1-3-2-5-7-5H53Z" fill="#082a5b"/>
      <path d="M77 25h16l-13 47h22l-4 13H60l17-60Z" fill="#3aaa48"/>
      <path d="M98 25h16l-6 20h21l6-20h16l-17 60h-16l7-24h-21l-7 24H81l17-60Z" fill="#3aaa48"/>
      <path d="M139 25h41l-4 13h-25l-3 9h23l-3 12h-23l-4 12h27l-4 14h-43l18-60Z" fill="#082a5b"/>
      <g transform="translate(116 -1) rotate(-8 18 17)" stroke-width="6" stroke-linecap="round">
        <path d="M7 24 2 19a10 10 0 0 1 0-14l3-3a10 10 0 0 1 14 0l5 5" stroke="#3aaa48"/>
        <path d="m14 11 5-5a10 10 0 0 1 14 0l3 3a10 10 0 0 1 0 14l-5 5a10 10 0 0 1-14 0l-3-3" stroke="#082a5b"/>
      </g>
    </g>
    <g transform="translate(194 13)">
      <text x="0" y="28" fill="#082a5b" font-family="Arial, Helvetica, sans-serif" font-size="31" font-weight="800" letter-spacing="-.5">PrimeLink</text>
      <text x="0" y="58" fill="#3aaa48" font-family="Arial, Helvetica, sans-serif" font-size="31" font-weight="800" letter-spacing="-.5">Hawema</text>
      <path d="M1 69h177" stroke="#9cb6a4" stroke-width="1"/>
      <text x="26" y="82" fill="#082a5b" font-family="Arial, Helvetica, sans-serif" font-size="10" font-weight="700" letter-spacing="4.5">ENTERPRISE</text>
    </g>
  </g>
</svg>
